<?xml version="1.0" encoding="UTF-8"?>
<svg id="Layer_1" data-name="Layer 1" xmlns="http://www.w3.org/2000/svg" viewBox="0 0 1080 1080">
  <defs>
    <style>
      .cls-1 {
        fill: #070707;
      }

      .cls-2 {
        fill: #548c48;
      }

      .cls-3 {
        fill: #233189;
      }

      .cls-4 {
        fill: #c7deea;
      }

      .cls-5 {
        fill: #eaeaea;
      }

      .cls-6 {
        fill: #f5f5f3;
      }

      .cls-7 {
        fill: #fefefd;
      }

      .cls-8 {
        fill: #353b3d;
      }

      .cls-9 {
        fill: #c6dde9;
      }

      .cls-10 {
        fill: #3a3a3b;
      }

      .cls-11 {
        fill: #fdfefd;
      }

      .cls-12 {
        fill: #333636;
      }

      .cls-13 {
        fill: #335339;
      }

      .cls-14 {
        fill: #33553a;
      }

      .cls-15 {
        fill: #c40e1a;
      }

      .cls-16 {
        fill: #bbbcbc;
      }

      .cls-17 {
        fill: #7b7a7b;
      }

      .cls-18 {
        fill: #010201;
      }

      .cls-19 {
        fill: #282727;
      }

      .cls-20 {
        fill: #35543b;
      }

      .cls-21 {
        fill: #838283;
      }

      .cls-22 {
        fill: #c6dce8;
      }

      .cls-23 {
        fill: #34533b;
      }

      .cls-24 {
        fill: #34573a;
      }

      .cls-25 {
        fill: #c5c5c5;
      }

      .cls-26 {
        fill: #335439;
      }

      .cls-27 {
        fill: #babbba;
      }

      .cls-28 {
        fill: #818181;
      }

      .cls-29 {
        fill: #878787;
      }

      .cls-30 {
        fill: #fefefe;
      }

      .cls-31 {
        fill: #848384;
      }

      .cls-32 {
        fill: #ebeaea;
      }

      .cls-33 {
        fill: #c6deea;
      }

      .cls-34 {
        fill: #345639;
      }

      .cls-35 {
        fill: #7f7f7f;
      }

      .cls-36 {
        fill: #c5ddea;
      }

      .cls-37 {
        fill: #34563a;
      }

      .cls-38 {
        fill: #010202;
      }

      .cls-39 {
        fill: #fdfefe;
      }

      .cls-40 {
        fill: #4c5358;
      }

      .cls-41 {
        fill: #212020;
      }

      .cls-42 {
        fill: #fdfdfd;
      }
    </style>
  </defs>
  <circle class="cls-2" cx="540" cy="540" r="456.66"/>
  <circle class="cls-30" cx="540" cy="540" r="444.28"/>
  <circle class="cls-24" cx="539.98" cy="540.03" r="429.84"/>
  <path class="cls-11" d="M768.92,881.37l-12.31,10.01c-2.14-5.15-4.08-9.44-7.09-13.6l-17.27-23.81c-5.71-7.87-11.56-15.09-18.37-21.86l10.16-7.8,12.47,4.53,50.08,13.22-20-26.76c-3.75-5.01-7.82-8.9-12.83-12.88l12.85-9.82c2.31,6.08,5,11.14,8.65,16.18l25.06,34.01c1.29,1.75,3.01,2.55,5.09,2.96l9.39,1.84-14.21,10.9c-2.95-1.89-5.68-3.16-9.05-4.06l-57.06-15.24,22.15,29.98c3.93,4.47,7.53,8.65,12.29,12.18Z"/>
  <path class="cls-11" d="M210.84,793.14l-9.37-14.67c3-4.5,4.74-8.98,6.48-14.01l17.3-50.02-24.38,14.88c-7.7,4.54-14.3,9.88-20.62,16.14l-8.55-13.58c7.3-1.95,13.59-4.95,19.85-9.01l28.42-18.44,13.81-10.52,6.87,10.9c-2.85,4.82-4.39,9.66-6.2,14.88l-15.88,45.88,25.39-16.22c6.14-3.92,11.42-8.12,16.63-13.47l8.47,13.68c-5.69,1.5-10.17,3.66-15.05,6.27l-39.27,24.91-3.9,12.39Z"/>
  <path class="cls-39" d="M307.94,288.65l-4.64-9.57-30.01-40.56c-1.12-1.51-2.97-2.2-4.71-2.54l-9.28-1.84,13.69-10.58c2.65,1.8,5.27,2.6,8.31,3.4l58.24,15.25-22.05-29.15-13.24-13.26,12.6-9.42,7.94,14.69,24.94,32.68,10.47,11-10.17,7.8-7.09-2.65-55.03-14.06,15.63,21.08c4.99,6.73,10.16,12.6,16.98,18.08l-12.56,9.66Z"/>
  <circle class="cls-42" cx="495.14" cy="910.18" r="26.9"/>
  <path class="cls-11" d="M143.56,541.81c-6.62-.36-12.27.25-18.47,1.5l.65-16.02c8,2.69,15.67,3.7,23.91,4.19l24.56,1.46c5.9.35,11.24-2.01,14.56-7.06s3.1-11.35.03-16.81c-2.44-4.34-7.53-7.79-13.45-8.16l-32.87-2.04-14.8,1.62.92-15.8c6.6,2.37,12.84,3.43,19.67,3.84l33.13,2.02c6.7.41,12.85.03,19.75-1.51l-.82,13.25-7.44-.16c6.18,8.41,8.78,18.39,5.31,28.3-3.28,9.34-13.87,13.59-24.01,13.04l-30.63-1.67Z"/>
  <path class="cls-42" d="M698.2,884.04c-3.96-12.33-13.89-21.36-27.08-21.46-8.45-.06-16.76,3.93-23.19,9.59,2.94,9.08,6.88,17.44,14.3,23l-15.82,6.47c-2.12-11.11-6.36-21.14-11.7-31.14,9.85-8.95,21.8-15.27,35.05-17.21,16.08-2.36,29.52,5.38,36.46,19.6,8.71,17.85,3.56,38.86-13.83,49.35-8.52,5.14-17.94,8.07-27.73,9.74l-4.61-10.47c8.07.26,15.44-.17,22.59-3.21,13.73-5.85,20.23-19.75,15.57-34.26Z"/>
  <path class="cls-11" d="M339.68,882.77l8.65-43.94-36.46,25.24c-4.91,3.4-8.76,7.47-10.87,13.2l-15.98-10.42c5.9-1.89,10.94-4.27,16.08-7.81l51.22-35.34,8.81,5.5-12.2,62.55c-.74,5.28-1.08,9.81-.71,15.66l-15.99-9.88c4.06-4.32,5.89-9.01,7.46-14.74Z"/>
  <path class="cls-7" d="M148.26,625.47l-14.51-3.18-6.61-42.84,33.8,10.9,35.19,10.62-3.5-18.49c-1.12-5.95-4.08-10.76-7.22-16.31l14.1,3.29,7.1,47.66-35.38-12.49-33.94-10.75c.72,12.01,4.33,22.22,10.97,31.6Z"/>
  <path class="cls-42" d="M257.69,831.86l17.3-17.61-16.35-16.5,11.77-3.01c2.33,5.5,5.68,9.83,10.23,13.99l17.9-18.32c-6.9-7.21-14.55-13.37-24.32-17.27,3.43-2.57,7.25-3.73,11.5-5.44l27.37,26.89c-5.56,3.16-10.19,6.86-14.67,11.4l-28.28,28.6-8.27,11.84-27.85-27.42c4.46-2.37,7.99-3.53,12.37-4.62,1.61,7.19,6.16,12.58,11.29,17.46Z"/>
  <path class="cls-30" d="M485.26,197.41l15.6-3.66c4.75-1.11,8.79-3.21,13.15-5.59-.5,4.51-1.69,8.41-3.17,12.72l-37.6,4.99.26-14.11-5.56-41.8c-.79-5.91-2.58-11.03-4.83-16.5l38.92-4.78-3.6,11.8c-6.91-2.05-13.82-2.44-21.25-1.29l3.6,24.48,22.88-2.93-4.3,11.15c-5.87-1.12-11.44-1.61-17.6-.67l3.49,26.19Z"/>
  <path class="cls-11" d="M155.08,659.91c-.57,6.99,1.06,13.58,3.38,20.49l23.14-8.19-7.68-22.09,11.88,2.11c.3,6.13,1.17,11.9,3.18,17.52l24.72-8.77c-3.6-10-8.63-18.27-14.63-26.71l12.8.61,12.87,36.33c-8.08.81-15.06,2.53-22.31,4.89l-27.7,9.78c-6.67,2.45-12.73,5.43-18.47,9.72l-13.18-36.96,11.99,1.27Z"/>
  <path class="cls-42" d="M202.47,451.5c3.98-9.51,4.18-19.7,3.76-30.49l10.29,8.23-10.13,36.93c-4.84-2.72-9.49-5.13-14.97-6.66l-43.31-12.11-11.7-1.28,10.36-37.18,9.51,7.61c-4.21,5.82-7.3,12.08-9.84,19.14l24.03,6.64,6.46-22.16,8.17,8.28c-3.06,5.21-5.54,10.14-7.16,15.89l24.54,7.16Z"/>
  <path class="cls-11" d="M436.36,215.51c-7.2,4.92-15.21,6.33-23.59,6.23l-4.88-14.12,9.78,4.05c5.02,2.08,11.03-.1,14.56-4.27,2.29-2.71,2.72-6.09,1.93-9.5-.64-2.78-2.95-5.6-6.27-6.51l-14.7-4.07c-4.58-1.27-9.28-2.61-12.57-6.2-8.18-8.93-6.87-22.65,2.5-30.36,6.09-5.01,14.08-6.85,21.81-5.69l3.24,10.78c-5.28-2.06-10.46-2.76-15.62-.72-4.45,1.77-7.33,5.7-7.15,10.23.18,4.64,3.34,8.83,8.23,10.09l18.28,4.69c3.54.91,6.75,2.56,8.98,5.37,7.65,9.6,5.89,22.89-4.51,29.99Z"/>
  <path class="cls-11" d="M691.11,203.63c-5.01-4.43-10.43-7.71-16.84-10.36l-7.41,19.17-2.42,12.43-15.08-6.19c5-6.64,8.31-13.15,11.27-20.39l11.08-27.12c2.66-6.5,4.16-12.89,5.26-20.1l37.02,15.03-8.83,7.94c-5.61-4.98-11.6-8.5-18.7-11.11l-9.42,23.08,22.68,9.71-8.6,7.91Z"/>
  <path class="cls-42" d="M893.44,508.76c-6.18.61-11.3,1.83-16.79,4.12l-1.73-16.17c5.67,1.18,10.83,1.81,16.61,1.23l48.82-4.88c-.75-7.87-3.24-14.79-6.88-22.26l12.26,1.84,5.8,53.86-11.97-2.83c1.52-6.66,2.62-12.73,1.57-19.62l-47.69,4.69Z"/>
  <path class="cls-42" d="M240.39,374.96l-15.58,32.33c-4.82-4.61-9.42-8.04-15.05-10.77l-30.09-14.6c-6.42-3.27-12.69-5.47-20.22-6.9l6.94-14.54c4.94,4.78,10.16,8.23,16.29,11.18l40.89,19.68c4.03-8.63,5.62-17.62,7.09-27.45l9.72,11.05Z"/>
  <path class="cls-42" d="M837.52,822.72c-3.66-6.09-7.69-10.7-12.61-15.28l-25.72-23.26c-4.76-4.07-9.4-7.54-15.31-10.28l11.1-11.9c3.63,6.33,8.09,11.17,13.3,15.94l21.55,19.56c5.67,5.3,11.46,9.84,18.86,13.41l-11.18,11.82Z"/>
  <circle class="cls-42" cx="754.75" cy="232.49" r="37.77"/>
  <path class="cls-37" d="M768.99,255.78c-6.83,5.47-15.11,7.39-23.56,4.8-6.69-2.05-13.42-7.32-15.89-15.17-4.61-14.64,1.54-30.46,14.49-38.67,6.22-3.95,13.99-5.12,20.82-2.28,10.85,4.51,16.9,15.35,16.25,27.06-.51,9.39-4.59,18.24-12.12,24.27Z"/>
  <circle class="cls-11" cx="832.09" cy="305.31" r="37.84"/>
  <path class="cls-14" d="M831.18,333.66c-15.32,1.79-27.42-10.95-26.75-25.75s11.79-27.84,26.42-30.78c13.1-2.63,25.42,5.44,28.15,18.75,3.59,17.52-9.42,35.63-27.82,37.77Z"/>
  <path class="cls-42" d="M895.42,415.12c-21.39,9.55-41.48-1.96-50.94-22.63l-7.24-15.8c7.8-1.15,14.5-3.34,21.47-6.29l28.87-12.9c6-2.68,11.11-5.8,16.27-10.63l8.76,19.29c3.27,7.21,3.68,15.35,2.5,23.13-1.79,11.86-8.98,21.06-19.69,25.84Z"/>
  <path class="cls-14" d="M904.1,390.61c-5.15,11.54-23.81,21.44-38.58,13.91-7.4-3.77-12.82-10.6-15.48-18.28l53.32-23.67c3.76,8.9,4.77,19.04.74,28.04Z"/>
  <path class="cls-11" d="M902.93,733.75c-8.63,17.89-21.78,34.86-42.26,36.49-13.85-.01-26.91-7.85-32.77-20.56-4.7-10.2-3.97-21.46.22-31.79l13.32-22.29c5.12,5.51,9.84,9.62,15.7,13.29l25.71,16.08c6.06,4.17,12.4,6.53,20.08,8.78Z"/>
  <path class="cls-34" d="M864.76,758.5c-9.28.8-17.56-3.54-23.68-9.72-10.85-10.47-8.07-24.43-1.67-37.63l24.2,14.34,26.22,16.82c-5.67,8.81-14.3,15.25-25.07,16.18Z"/>
  <path class="cls-11" d="M907.66,582.65c-12.17,6.06-22.94,12.55-33.95,20.58-.59-9.8.89-10.54,6.42-15.13,9.19-7.64,19.13-13.44,29.89-19.82l-18.51-1.95-14.7,1.06,1.48-15.76c6.17,2.33,11.69,3.61,17.84,4.35l41.5,3.81,13.44-.9-1.74,17.6c-.68,6.92-3.59,13.29-8.68,18.1-7.82,7.39-20.29,6.23-27.27-1.79-2.58-2.96-3.88-6.13-5.71-10.13Z"/>
  <path class="cls-26" d="M936.94,584.78c-5.7,5.03-14.07,4.54-19.27-.64-3.69-4.48-5.61-9.83-5.52-15.98l30.87,2.86c.12,5.55-1.96,10.11-6.08,13.76Z"/>
  <path class="cls-7" d="M854.28,666c3.71,1.18,6.87,2.01,10.66,1.63l13.79-1.39,8.11-25.66-9.69-9.43c-2.9-2.3-5.54-4.4-9.73-5.24l5.49-16.16c4.7,6.45,9.57,11.57,15.1,17.09l43.33,43.34-57.82,7.36c-8.51.8-16.26,2.1-24.15,4.78l4.92-16.33Z"/>
  <polygon class="cls-13" points="910.02 663.01 888.04 665.29 893.74 647.26 910.02 663.01"/>
  <path class="cls-30" d="M261.69,304.64l-16.67,21.39,5.18,10.55c2.09,3.73,4.39,7,8.13,9.68l-10.76,13.57c-1.5-6.27-3.43-11.26-6.02-16.83l-28.19-60.51,67.66,15.99,14.24.73-10.87,14.21c-2.9-2.39-5.86-4.25-9.42-5.21l-13.28-3.57Z"/>
  <polygon class="cls-23" points="252.95 302.26 240.66 317.48 230.38 296.62 252.95 302.26"/>
  <path class="cls-30" d="M580.9,179.17l-26.94-2.45-7.89,13.86c-.94,2.75-1.43,5.37-1.77,8.7l-17.26-1.13,11.6-16.53,33.51-54.79,22.84,60.47,8.33,16.86-17.7-1.45c.72-4.01.23-7.34-.85-10.86l-3.87-12.67Z"/>
  <polygon class="cls-20" points="577.51 170.21 558.49 168.57 569.96 148.91 577.51 170.21"/>
  <circle class="cls-36" cx="540.01" cy="540.02" r="318.54"/>
  <path class="cls-3" d="M614.32,607.23l.65-1.51c12.77-1.31,25.52-2.9,38.25-4.75l.14-5.63,1.46-.95c2.02.21,2.74,2.22,2.18,6.03l1.41,1.41c.38-.41.88-.47,1.51-.19-.57-1.15-.53-9.14-.13-9.53.1-.1.4,0,.76.15l.06,9.33c50.72-4.64,98.62,4.28,146.88,21.91-14.01,45.04-39.22,89.18-73.63,121.39-15.07,14.11-30.96,26.04-48.91,36.28-46.7,26.65-100.24,39.42-153.58,43.15l-40.82-4.31c-47.92-8.37-92.82-23.81-132.65-52.07-46.83-33.24-79.52-78.51-103.1-131.09,50.17,22.5,100.82,34.23,155.37,29.04,21.05-2.11,41.12-5.34,61.09-11.73l37.73-12.08,38.62-13.43c23.44-8.15,46.61-15.28,70.45-20.85-1.44-.71-2.65-.36-3.73-.57Z"/>
  <path class="cls-38" d="M649.55,383.51l1.95-1.04c1.25,51.55,2.02,103.22,2.31,155.01l1.46.81c.66,36.82.98,55.23.98,55.23l-1.43.87-.1,7.84-31.04,4.14-9.35.87c-20.56,1.9-40.14,7.36-59.95,14.51l-63.67,22.99c-41.73,14.34-85.11,21-129.3,19.54l.05-23.23.7-5.37c.33-1.35.91-1.95,1.75-1.79.19-1.02.41-2.04.72-3.02s.64-1.93,1.15-2.78c14.22-23.95,30.46-47.77,46.58-70.53,13.64-19.26,27.98-39.12,43.35-56.98.64-.75,1.44-1.36,2.26-1.97s1.72-1.13,2.63-1.63c.5-2.52,1.44-3.71,2.81-3.59.4-3.15,2.15-6.08,5.23-8.79,16.11-14.07,32.61-27.69,49.48-40.86l47.29-31.41c9.29-5.33,19.11-9.76,29.29-13.08,3.25,1.64,6.32,3.19,9.22,4.63l-3.15-7.88,1.4-2.34,14.27-4.04c3.57,2.49,7.08,4.82,10.53,6.98-.28-3.66.2-6.91,1.41-9.76l19.86-4.52,1.33,1.19Z"/>
  <path class="cls-38" d="M692.9,411.2c.99-1.07,1.46-.6,1.01.82l-5.86,14.38c-6.81,21.37-11.8,42.45-15.48,64.68-5.59,33.85-9.46,67.36-12.03,101.19-.47.08-.75.61-.74,1.38l.11,8-.7.25c.51-72.44,1.3-144.98,2.38-217.6l.7-.48,1.6-.74c10.77,5.57,15.21,12.26,13.61,24.48l5.94-5.16c4.21-1.23,10.25,4.49,9.45,8.82Z"/>
  <path class="cls-15" d="M477.78,393.25c1-.84,1.26-.14.78,2.09,1.24,5.69,1.83,13.05-.65,12.1-2.68-2.07-6.74-4.42-10.61-4-14.78,1.61-30.5,19.05-31.3,34.41l-.56,10.65-10.48,11.31-9.12,9.67-7,7.44c-.13-2.21.27-3.84-.47-5.51-.86,1.18-.41,2.13-.59,2.73-.22-.97-.54-2.05-.37-3.1l.93-12.96c4.89-9.47,12.67-20.91,24.1-22.18l.2-9.42.95-.85c-2.07-17.15,16.51-41.46,34.14-39.88,4.61.41,9.4,2.45,10.06,7.49Z"/>
  <path class="cls-18" d="M470.03,375.12c2.79-2.4,7.64,3.84,8.72,6.57,1.34,3.38,1.55,9.12-.98,11.55-1.7-1.57-3.89-4.74-6.77-5.42-3.38-.8-7.73-1.35-11.17.19-11.7,5.22-20.83,15.74-24.35,28.11-1.97,6.94-1.32,13.76-1.42,21.11-5.3.2-9.53,2.11-13.01,5.76-4.64,4.86-9.26,9.95-11.7,16.41l-1.95,11.63-.8-21.66c5.46-10.33,14.2-25.44,26.46-23.47l.04-22.79c3.22-8.4,8.06-16.05,14.86-21.96,2.72-2.36,5.88-3.95,9.18-5.28l5.02-2.02,7.87,1.26Z"/>
  <path class="cls-12" d="M693.91,412.02c-.31-.32-.74-.68-1.01-.82l-.37-2.86c2.63-7.18,6.14-13.79,10.54-19.83-10.4-14.61-24.77-28.11-38.74-38.74l-.57,33.01-1.46,1.02-.72,44.98-.13,22.91-.56,46.33-.71,47.75-.69,40.34-.32,14.8c-.01.51.39.79.74.73,0,.29-.12.58-.44.7-.61.22-.77-.52-1.07-.51-1.4-.33-1.87-1.8-1.4-4.42l1.5-140.75s.67-57.77,2.02-173.3l-8.03,8.09c1.48,81.59,2.39,163.31,2.74,245.16l-1.44.88-.76-25.02-.83-85.02-.71-25.2-.22-17.1c0-.52-.21-1.52-.46-1.74s-1.04.09-1.27.11l-.66-37.84-20.63,3.56-2.86-.81c-.24-.74-1.18-.91-1.73-.78,8.62-2.31,17.34-4.23,26.82-4.93l-.15-25.39-.77-27.46,13.73-13.82-.23,37.13-.25,31.51,13.62,10.97c11.17,9.89,20.94,20.82,29.66,32.87-5.37,7.68-8.92,15.48-12.19,23.49Z"/>
  <path class="cls-8" d="M365.34,598.04c.93.99.63,2.45-.89,4.37-.22,8.98,0,18.02.69,27.12l-1.25,4.36c-.4.65-.41,1.59-1.75,1.79l-.77-33.18c1.42-3.13,2.93-5.85,2.73-9.57,1.27.8,0,3.32,1.24,5.11Z"/>
  <path class="cls-27" d="M658.4,601.83l-1.89.04c-1.96.04,0-4.3-1.7-7.48l-.42-29-.59-27.91-.12-58.91-.7-53.36-.3-27.76-.63-19.52-.3-59.81-.72-27.49,10.96-11-.14,20.46-.78,64.15-.58,65.66-.76,8.67.22,18.08-.51,61.67-.71,49.66-.32,33.84Z"/>
  <path class="cls-32" d="M516.17,419.06l-.22.96c-19.57.38-39.19.59-58.86.64l.17,9.28h42.65c1.76.02,2.39.91,1.13,2.21-1.6.5-2.72,1.71-4.19,2.95l-38.88,32.62-.34-13.6-4.91-.41-.21-16.81c-1.32-.31-2.38-.48-3.24-.36l.25-15.93c.03-1.93.7-4.09.3-6.56l30.37-.12,10.5-.36,24.2.28c.9,1.7,1.19,3.51,1.3,5.21Z"/>
  <path class="cls-10" d="M569.91,384.73c-17.31,9.77-33.55,21.14-49.47,33.44-1.07.83-1.65,1.2-2.74.75-.65.05-.71-.18-.21-.65l-2.3-12.12c20.96-16.46,42.85-30.24,66.93-42.38l-.21,13.41-12.57,6.37c-.28.14.08,1.04.56,1.18Z"/>
  <path class="cls-1" d="M517.71,418.91c.1,1.2-.87,1.83-1.88,2.63l-14.57,11.53c-.25-.52-.27-.74-.22-.92.1-.35-.11-.78-.69-.78h-44.69s-.02-12.46-.02-12.46l60.53.14c.44,0,1.06-.54,1.33-.8l.21.65Z"/>
  <path class="cls-41" d="M623.66,347.64c1.68-.4,2.26-.14,1.73.78l-3.9,2.46c-12.47,3.24-24.48,7.98-36.29,13.07,0,4.72-.2,9.43-.6,14.13-4.21,2.72-8.58,5.2-13.11,7.43l-1.59-.79c-2.21.91-2.52-.49-1.21-2.39l11.67-5.99c.3-.4.46-9.44.27-9.99-.62-1.83-30.04,16.7-33.61,18.97-10.53,6.72-20.69,14.04-30.74,21.45-.02.01.32-.27.47-.11.36.38,1.88,9.12,1.96,10.32l-1.23,1.27c-.05,1.17-.59,1.86-1.33.8-1.13-.62-2-1.88-2.62-3.78-20.62-.12-41.25-.05-61.9.21,0,2.78-.71,4.49-2.15,5.12-.58.1-1.42.01-1.46-.38-.39-3.7-.73-7.28,3.61-8.31l28.73-.06c.55,1.17,1.94,1.44,2.86.51l-1.25-.99.19-5.81c-.2,1.87-.9,3.06-2.09,3.56-1.19,1.77-3.02.2-2.19-1.69.5-3.67.18-7.39-.6-11.01l1.25-1.09c-.02-2.2.33-4.37,1.05-6.5l12.36-30.85-20.46,16.79-1.47.35c-.86,2.17-7.52,1-7.87-1.26l14.39-12.51,23.59-19.28,27.77-69.31,9.24-22.62-.12-22.37c-.01-2,4.84-2.22,4.89-.4l.46,14.8,41.22,55.41,36.76,49.93c.87.69,2.58.3,3.31.12Z"/>
  <path class="cls-33" d="M607.04,348.71l-63.78-33.96-.39-62.37,72.13,97.14c-2.71,1.64-5.23,1.42-7.96-.8Z"/>
  <path class="cls-33" d="M483.24,412.37c-.96.37-2.05.11-2.51-.72-.32-.58-.12-2.12-.63-2.52-.03-1.88.4-3.59,1.19-5.57l21.66-53.96c1.28-3.18,3.04-5.44,5.79-7.31l25.36-20.22-32.82,62.48c-2.69,5.11-14.14,12.42-16.66,17-1.76,3.19-.55,7.66-1.38,10.82Z"/>
  <path class="cls-4" d="M538.92,383.69l-1.85.77c-2.22.32-28.69.97-29.26-.39-.09-.22.19-.61.59-1.04l29.56-56.11.96,56.77Z"/>
  <polygon class="cls-4" points="538.19 310.94 509.47 334.13 537.04 265.59 538.19 310.94"/>
  <polygon class="cls-33" points="585.8 360.36 564.58 371.61 544.19 325.27 553.24 333.07 585.8 360.36"/>
  <path class="cls-25" d="M507.12,385.15l1.29-.94,28.27.25.48.77c1.42,0,2.88-.1,4.41.35l-27.58,20.01.99,6.81-11.29-.2-.15-25.31c.01-1.12.86-1.73,1.5-1.73h2.08Z"/>
  <polygon class="cls-9" points="544.68 383.23 543.98 356.34 544.05 339.45 559.47 374.19 544.68 383.23"/>
  <path class="cls-9" d="M478.56,395.34c-.12-.54-.37-1.71-.78-2.09.11-3.18,1.05-6.68-.04-10.14s-4.47-6.71-7.71-7.99c-.01-1.06.53-1.59,1.4-2.3l23.97-19.49-16.84,42.01Z"/>
  <polygon class="cls-16" points="484.98 412.4 485.43 402.05 502.43 385.91 502.43 412.39 484.98 412.4"/>
  <polygon class="cls-22" points="603.41 353.35 591.84 358.05 556.64 328.22 574.94 338.04 603.41 353.35"/>
  <path class="cls-40" d="M538.92,383.69l-1.75,1.54-30.05-.08c-.15-.82.93-1.45,1.28-2.11-.13.37.21.68.71.68l29.81-.02Z"/>
  <polygon class="cls-16" points="514.98 412.39 503.21 412.56 503.55 386.89 503.98 411.84 514.98 412.39"/>
  <path class="cls-18" d="M477.91,407.44l2.19,1.69,1.05-.15c.46,1.2,1.16,2.33,2.09,3.39-.22.85-.58,1.08-1.56.93l-32.49-.02.31,7.32c.56.08,1.39.25,1.43.66.28,2.44.08,7.95-.16,10.54.45,2.48-.06,4.06-1.52,4.73-.15.81-1.01,1.27-2.56,1.4.56,0,1.42.15,1.44.51.12,2.71.17,21.83-.39,22.82l-34.85,39.24,3.87,14.69-.31,1.93-49.41,80.91h-1.69s-1.14-.08-1.14-.08c.28-1.76.24-3.44-.1-5.03l-1.23-23.26,33.55-54.56-2.48-21.64,13.66-14.99c.94-1.03.42-3.31.18-4.34-.6-3.64,1.08-5.01,2.74-1.11l23.49-25.08c-.55-17.4,6.35-33.33,22.21-42.24,5.62-3.15,11.28-4.99,17.41-2.53,1.76.7,5.36,2.21,4.29,4.26Z"/>
  <path class="cls-17" d="M401.66,498.16c-1.42-1.68-1.41-3.33-1.32-5.36l39.03-40.23c.9-.69,2.08.67,2.37,1.29.48,1.03.41,2.33-.65,3.43l-39.43,40.86Z"/>
  <path class="cls-6" d="M692.9,411.2c-2.01-3.23-4.13-6.89-8.36-7.94l-8.43,7.46-.16-12.62c-.08-5.81-7.76-10.93-13.65-14.31l.42-23.17.21-13.81,12.89,10.15c10.72,9.45,20.02,20,28.51,31.4-5.03,7.66-8.23,15.14-11.43,22.81Z"/>
  <path class="cls-6" d="M649.55,383.51l-20.77,4.52-.55,11.8-11.97-8.88-14.33,4.28,5.04,12.42-12.25-7.06c-12.07,4.45-23.56,9.36-34.27,16.54l-41.5,27.78-43.87,35.45c-4.76,3.85-8.13,8.49-11.7,13.05-1.27,1.31-1.83,1.4-1.67.26l-.44-14.82-1.59-.96c-5.85.54-4.65-8.78-.77-9.9,13.9-11.7,27.77-23.38,41.63-35.03l.72.13-.25-1.64c5.34-4.53,10.9-8.71,16.7-12.52,9.42-8.32,21.06-16.44,32.06-23.57,4.78-3.1,9.58-6.16,14.5-9.03.81-.47,1.75-.75,2.7-1.02s1.95-.44,2.95-.58l13.53-7.24.34-14.4c13.62-6.12,27.34-11.31,41.61-14.67,8-1.88,16.11-3.8,24.93-4.25l.28,28.68.51,7.43c.09,1.29-.04,2.9-1.58,3.23Z"/>
  <rect class="cls-28" x="456.99" y="447.65" width="62.64" height="3.14" transform="translate(-174.27 414.18) rotate(-39.58)"/>
  <rect class="cls-35" x="458.96" y="452.19" width="61.66" height="2.9" transform="translate(-176.82 417.35) rotate(-39.69)"/>
  <path class="cls-5" d="M460.58,496.98c-33.96,40.26-69.09,91.81-96.68,136.9l-1.36-30.14c.26-1.96,1.91-4.23,2.81-5.71l50.13-82.09-4.24-15.76,35.2-39.36.26-22.89c1.67-.7,3.43-.89,5.23-.49l.08,16.15c1.38.89,3.08,1.28,5.08,1.16-.2,4.97-.03,9.66.49,14.07-2.92,4.26-2.97,8.8,3.16,9.47.89,4.15,1.24,10.34.96,14.75-.09,1.42-.16,2.43-1.13,3.94Z"/>
  <path class="cls-19" d="M501.26,433.07l-5.33,4.71-38.72,32.68c-1.35,1.14-1.22,5.09.17,6.11,1.03.76,4.74.38,4.79,2.44l.35,14.52.87-.13-2.81,3.59c.66-2.9.14-6,.12-9.36l-.06-7.97c-.01-1.44-3.43-1.69-4.9-1.53-1.55-3.71.48-7.08.55-10.59l.26-12.22-5.25-.21.12-17.1-4.72-.06c.9-.57,1.73-1.29,2.56-1.4.95-2.13,3.29-1.66,4.49.17l.39,15.49c2.01.06,3.58.62,4.7,1.69.23,3.73.47,7.27.73,10.61l37.84-31.79s1.21-.19,3.64-.56c.95-.44,1.03-.13.22.92Z"/>
  <rect class="cls-29" x="406.57" y="482.61" width="46.37" height="4.47" transform="translate(-218.13 483.63) rotate(-48.34)"/>
  <rect class="cls-21" x="410.68" y="494.89" width="45.43" height="4.64" transform="translate(-226.19 496.93) rotate(-48.9)"/>
  <rect class="cls-31" x="408.79" y="488.84" width="45.45" height="4.41" transform="translate(-222.19 490.05) rotate(-48.61)"/>
</svg>