<?xml version="1.0" encoding="UTF-8"?>
<svg id="Layer_1" data-name="Layer 1" xmlns="http://www.w3.org/2000/svg" xmlns:xlink="http://www.w3.org/1999/xlink" viewBox="0 0 1080 1080">
  <defs>
    <style>
      .cls-1 {
        mask: url(#mask);
      }

      .cls-2 {
        fill: #f67313;
      }

      .cls-2, .cls-3, .cls-4, .cls-5, .cls-6, .cls-7, .cls-8, .cls-9 {
        fill-rule: evenodd;
      }

      .cls-10 {
        fill: #2bc3fd;
      }

      .cls-11 {
        fill: url(#linear-gradient-8);
      }

      .cls-12 {
        fill: url(#linear-gradient-7);
      }

      .cls-13 {
        fill: url(#linear-gradient-5);
      }

      .cls-14 {
        fill: url(#linear-gradient-6);
      }

      .cls-15 {
        fill: url(#linear-gradient-9);
      }

      .cls-16 {
        fill: url(#linear-gradient-4);
      }

      .cls-17 {
        fill: url(#linear-gradient-3);
      }

      .cls-18 {
        fill: url(#linear-gradient-2);
      }

      .cls-19 {
        fill: url(#linear-gradient);
      }

      .cls-20 {
        mask: url(#mask-2);
      }

      .cls-21 {
        mask: url(#mask-3);
      }

      .cls-22 {
        mask: url(#mask-4);
      }

      .cls-23 {
        mask: url(#mask-5);
      }

      .cls-24 {
        mask: url(#mask-7);
      }

      .cls-25 {
        mask: url(#mask-6);
      }

      .cls-26 {
        mask: url(#mask-1);
      }

      .cls-3 {
        fill: #830037;
      }

      .cls-4 {
        fill: #2684f5;
      }

      .cls-27 {
        clip-path: url(#clippath-1);
      }

      .cls-28 {
        clip-path: url(#clippath-3);
      }

      .cls-29 {
        clip-path: url(#clippath-2);
      }

      .cls-30 {
        fill: #fcc303;
      }

      .cls-31 {
        clip-rule: evenodd;
        fill: none;
      }

      .cls-32 {
        fill: url(#linear-gradient-10);
      }

      .cls-33 {
        fill: url(#linear-gradient-11);
      }

      .cls-34 {
        fill: url(#linear-gradient-12);
      }

      .cls-5 {
        fill: #eb206e;
      }

      .cls-35 {
        fill: #e31e69;
      }

      .cls-36 {
        fill: #001457;
      }

      .cls-6 {
        fill: #25e;
      }

      .cls-7 {
        fill: #4004ff;
      }

      .cls-8 {
        fill: #b866ff;
      }

      .cls-37 {
        fill: #5314ff;
      }

      .cls-38 {
        clip-path: url(#clippath);
      }

      .cls-9 {
        fill: #fdd000;
      }
    </style>
    <clipPath id="clippath">
      <path class="cls-31" d="M13.39,512.58v61.22l11.08.54c21.22,1.01,23.33,3.87,23.74,25.06.31,17.34-.76,34.99-.76,52.42,0,56.82,36.12,84.32,90.96,82.18l10.77-.42v-61.54c-7.82-.23-26.04.25-30.86-5.17-3.61-4.06-3.85-15.16-3.97-20.22-.31-17.33.78-34.99.78-52.42,0-69.46-47.42-84.28-101.74-81.65"/>
    </clipPath>
    <linearGradient id="linear-gradient" x1="998.71" y1="586.36" x2="998.71" y2="366.56" gradientTransform="translate(1080 1100.66) rotate(-180)" gradientUnits="userSpaceOnUse">
      <stop offset="0" stop-color="#820036"/>
      <stop offset="1" stop-color="#ed216f"/>
    </linearGradient>
    <linearGradient id="linear-gradient-2" x1="740.9" y1="1001.93" x2="920.65" y2="822.18" gradientTransform="translate(983.99 1478.39) rotate(-180)" gradientUnits="userSpaceOnUse">
      <stop offset="0" stop-color="#fff"/>
      <stop offset="1" stop-color="#000"/>
    </linearGradient>
    <mask id="mask" x="13.39" y="542.42" width="135.79" height="191.69" maskUnits="userSpaceOnUse">
      <rect class="cls-18" x="13.39" y="542.42" width="135.79" height="191.69"/>
    </mask>
    <linearGradient id="linear-gradient-3" x1="993.4" y1="920.9" x2="821.92" y2="821.96" gradientTransform="translate(983.99 1476.31) rotate(-180)" xlink:href="#linear-gradient-2"/>
    <mask id="mask-1" x="13.39" y="512.29" width="135.79" height="190.9" maskUnits="userSpaceOnUse">
      <rect class="cls-17" x="13.39" y="512.29" width="135.79" height="190.9"/>
    </mask>
    <clipPath id="clippath-1">
      <path class="cls-31" d="M13.39,573.8v-61.22l11.08-.54c21.22-1.01,23.33-3.88,23.74-25.05.31-17.34-.76-35-.76-52.42,0-56.83,36.12-84.33,90.96-82.18l10.77.42v61.53c-7.82.23-26.04-.25-30.86,5.17-3.61,4.05-3.85,15.16-3.97,20.2-.31,17.34.78,35,.78,52.42,0,69.47-47.42,84.29-101.74,81.65"/>
    </clipPath>
    <linearGradient id="linear-gradient-4" x1="998.71" y1="526.59" x2="998.71" y2="742.19" gradientTransform="translate(1080 1100.66) rotate(-180)" gradientUnits="userSpaceOnUse">
      <stop offset="0" stop-color="#f56b15"/>
      <stop offset="1" stop-color="#fdd100"/>
    </linearGradient>
    <linearGradient id="linear-gradient-5" x1="740.86" y1="855.46" x2="920.61" y2="1035.06" gradientTransform="translate(983.99 1465.28) rotate(-180)" xlink:href="#linear-gradient-2"/>
    <mask id="mask-2" x="13.39" y="352.27" width="135.79" height="191.68" maskUnits="userSpaceOnUse">
      <rect class="cls-13" x="13.39" y="352.27" width="135.79" height="191.68"/>
    </mask>
    <linearGradient id="linear-gradient-6" x1="993.42" y1="936.44" x2="821.93" y2="1035.39" gradientTransform="translate(983.99 1467.41) rotate(-180)" xlink:href="#linear-gradient-2"/>
    <mask id="mask-3" x="13.39" y="383.18" width="135.79" height="190.91" maskUnits="userSpaceOnUse">
      <rect class="cls-14" x="13.39" y="383.18" width="135.79" height="190.91"/>
    </mask>
    <clipPath id="clippath-2">
      <path class="cls-31" d="M1066.61,573.8v-61.22l-11.09-.54c-21.23-1.02-23.34-3.88-23.73-25.06-.33-17.34.77-35,.77-52.41,0-56.83-36.12-84.33-90.97-82.18l-10.78.42v61.53c7.81.23,26.05-.25,30.87,5.17,3.61,4.05,3.86,15.16,3.95,20.2.33,17.34-.77,35-.77,52.42,0,69.47,47.43,84.29,101.74,81.65"/>
    </clipPath>
    <linearGradient id="linear-gradient-7" x1="81.29" y1="526.45" x2="81.29" y2="747.71" gradientTransform="translate(1080 1100.66) rotate(-180)" gradientUnits="userSpaceOnUse">
      <stop offset="0" stop-color="#3a00ff"/>
      <stop offset="1" stop-color="#bc69ff"/>
    </linearGradient>
    <linearGradient id="linear-gradient-8" x1="219.24" y1="855.45" x2="39.47" y2="1035.07" gradientTransform="translate(1056.09 1465.28) rotate(-180)" xlink:href="#linear-gradient-2"/>
    <mask id="mask-4" x="930.81" y="352.26" width="135.79" height="191.69" maskUnits="userSpaceOnUse">
      <rect class="cls-11" x="930.81" y="352.26" width="135.79" height="191.68"/>
    </mask>
    <linearGradient id="linear-gradient-9" x1="-33.32" y1="936.45" x2="138.18" y2="1035.4" gradientTransform="translate(1056.09 1467.41) rotate(-180)" xlink:href="#linear-gradient-2"/>
    <mask id="mask-5" x="930.81" y="383.17" width="135.79" height="190.91" maskUnits="userSpaceOnUse">
      <rect class="cls-15" x="930.81" y="383.18" width="135.79" height="190.91"/>
    </mask>
    <clipPath id="clippath-3">
      <path class="cls-31" d="M1066.61,512.58v61.22l-11.09.53c-21.23,1.01-23.34,3.88-23.73,25.06-.33,17.34.77,35,.77,52.42,0,56.82-36.12,84.32-90.97,82.17l-10.78-.42v-61.55c7.81-.23,26.05.26,30.87-5.16,3.61-4.06,3.86-15.17,3.95-20.22.33-17.34-.77-34.99-.77-52.42,0-69.46,47.43-84.3,101.74-81.65"/>
    </clipPath>
    <linearGradient id="linear-gradient-10" x1="81.29" y1="613.64" x2="81.29" y2="350.17" gradientTransform="translate(1080 1100.66) rotate(-180)" gradientUnits="userSpaceOnUse">
      <stop offset="0" stop-color="#1e27e8"/>
      <stop offset="1" stop-color="#2cd2ff"/>
    </linearGradient>
    <linearGradient id="linear-gradient-11" x1="-33.32" y1="920.91" x2="138.17" y2="821.96" gradientTransform="translate(1056.09 1476.31) rotate(-180)" xlink:href="#linear-gradient-2"/>
    <mask id="mask-6" x="930.81" y="512.28" width="135.79" height="190.91" maskUnits="userSpaceOnUse">
      <rect class="cls-33" x="930.81" y="512.28" width="135.79" height="190.91"/>
    </mask>
    <linearGradient id="linear-gradient-12" x1="219.19" y1="1001.93" x2="39.43" y2="822.18" gradientTransform="translate(1056.09 1478.39) rotate(-180)" xlink:href="#linear-gradient-2"/>
    <mask id="mask-7" x="930.81" y="542.42" width="135.79" height="191.69" maskUnits="userSpaceOnUse">
      <rect class="cls-34" x="930.81" y="542.42" width="135.79" height="191.69"/>
    </mask>
  </defs>
  <g>
    <path class="cls-36" d="M175.73,515.28v-162.29h33.03v24.39l-.67,35.47,2.22,35.25v67.18h-34.59ZM246.01,474.04c-9.9,0-18.62-2.22-26.16-6.65-7.54-4.43-13.41-11.2-17.62-20.29s-6.32-20.58-6.32-34.47,2-25.57,5.99-34.59c3.99-9.01,9.79-15.74,17.4-20.17,7.61-4.43,16.52-6.65,26.72-6.65,11.38,0,21.54,2.55,30.48,7.65,8.94,5.1,16.04,12.23,21.28,21.39,5.24,9.17,7.87,19.95,7.87,32.37s-2.63,23.39-7.87,32.48c-5.25,9.09-12.34,16.18-21.28,21.28-8.94,5.1-19.1,7.65-30.48,7.65ZM240.25,445.66c5.76,0,10.9-1.33,15.41-3.99,4.51-2.66,8.13-6.46,10.86-11.42,2.73-4.95,4.1-10.83,4.1-17.62s-1.37-12.86-4.1-17.74c-2.74-4.88-6.36-8.61-10.86-11.2-4.51-2.58-9.64-3.88-15.41-3.88s-10.94,1.3-15.52,3.88c-4.58,2.59-8.24,6.32-10.97,11.2-2.74,4.88-4.1,10.79-4.1,17.74s1.36,12.67,4.1,17.62c2.73,4.95,6.39,8.76,10.97,11.42,4.58,2.66,9.75,3.99,15.52,3.99Z"/>
    <path class="cls-36" d="M355.97,474.04c-9.17,0-17.07-1.59-23.72-4.77-6.65-3.18-11.79-7.5-15.41-12.97-3.62-5.47-5.43-11.6-5.43-18.4s1.74-13.12,5.21-18.51c3.47-5.39,8.98-9.57,16.52-12.53,7.54-2.96,17.44-4.43,29.71-4.43h31.48v19.95h-27.93c-8.13,0-13.71,1.33-16.74,3.99-3.03,2.66-4.54,5.99-4.54,9.98,0,4.43,1.74,7.95,5.21,10.53,3.47,2.59,8.16,3.88,14.08,3.88s11.2-1.33,15.85-3.99c4.66-2.66,7.94-6.72,9.87-12.19l5.32,16.18c-2.52,7.39-7.09,13.12-13.75,17.18-6.65,4.07-15.22,6.1-25.72,6.1ZM392.33,472.27v-23.28l-2.22-5.1v-41.68c0-7.39-2.26-13.15-6.76-17.29-4.51-4.14-11.42-6.21-20.73-6.21-6.36,0-12.6,1-18.73,2.99-6.13,2-11.42,4.69-15.85,8.09l-12.19-24.17c6.5-4.73,14.33-8.31,23.5-10.75,9.16-2.44,18.47-3.66,27.93-3.66,18.18,0,32.29,4.29,42.35,12.86,10.05,8.57,15.08,21.95,15.08,40.13v68.06h-32.37Z"/>
    <path class="cls-36" d="M486.33,474.04c-10.05,0-18.92-1.92-26.6-5.76-7.69-3.84-13.67-9.75-17.96-17.74-4.29-7.98-6.43-18.03-6.43-30.15v-67.4h34.59v62.08c0,10.05,2.11,17.4,6.32,22.06,4.21,4.66,10.16,6.98,17.85,6.98,5.32,0,10.05-1.18,14.19-3.55,4.14-2.36,7.43-5.91,9.87-10.64,2.44-4.73,3.66-10.64,3.66-17.74v-59.19h34.36v119.28h-32.81v-33.03l5.99,9.75c-4.14,8.28-10.05,14.52-17.74,18.73-7.69,4.21-16.11,6.32-25.27,6.32Z"/>
    <path class="cls-36" d="M571.35,472.27v-164.5h34.59v164.5h-34.59Z"/>
    <path class="cls-36" d="M681.76,474.04c-12.56,0-23.76-2.66-33.59-7.98-9.83-5.32-17.55-12.6-23.17-21.84-5.62-9.24-8.42-19.77-8.42-31.59s2.81-22.58,8.42-31.81c5.62-9.23,13.34-16.48,23.17-21.73,9.83-5.24,21.02-7.87,33.59-7.87s24.02,2.63,33.92,7.87c9.9,5.25,17.66,12.49,23.28,21.73,5.62,9.24,8.42,19.84,8.42,31.81s-2.81,22.54-8.42,31.7c-5.62,9.17-13.38,16.41-23.28,21.73-9.9,5.32-21.21,7.98-33.92,7.98ZM681.76,445.66c5.91,0,11.12-1.29,15.63-3.88,4.51-2.58,8.13-6.39,10.86-11.42,2.73-5.02,4.1-10.94,4.1-17.74s-1.37-12.86-4.1-17.74c-2.74-4.88-6.36-8.61-10.86-11.2-4.51-2.58-9.64-3.88-15.41-3.88s-10.94,1.3-15.52,3.88c-4.58,2.59-8.24,6.32-10.97,11.2-2.74,4.88-4.1,10.79-4.1,17.74s1.36,12.71,4.1,17.74c2.73,5.03,6.39,8.83,10.97,11.42,4.58,2.59,9.68,3.88,15.3,3.88Z"/>
  </g>
  <g>
    <path class="cls-36" d="M348.73,624.77c-12.86,0-24.28-2.62-34.25-7.87-9.98-5.24-17.81-12.53-23.5-21.84-5.69-9.31-8.54-19.88-8.54-31.7s2.84-22.54,8.54-31.7c5.69-9.16,13.52-16.41,23.5-21.73s21.39-7.98,34.25-7.98,23.54,2.63,32.92,7.87c9.38,5.25,16.15,12.68,20.29,22.28l-26.6,14.63c-3.25-5.62-7.17-9.72-11.75-12.3-4.58-2.58-9.61-3.88-15.08-3.88-5.76,0-11.01,1.3-15.74,3.88-4.73,2.59-8.5,6.32-11.31,11.2-2.81,4.88-4.21,10.79-4.21,17.74s1.4,12.9,4.21,17.85c2.81,4.95,6.58,8.72,11.31,11.31,4.73,2.59,9.98,3.88,15.74,3.88,5.47,0,10.49-1.29,15.08-3.88,4.58-2.58,8.5-6.76,11.75-12.53l26.6,14.63c-4.14,9.46-10.9,16.85-20.29,22.17-9.39,5.32-20.36,7.98-32.92,7.98Z"/>
    <path class="cls-36" d="M468.45,624.77c-12.56,0-23.76-2.66-33.59-7.98-9.83-5.32-17.55-12.6-23.17-21.84-5.62-9.24-8.42-19.77-8.42-31.59s2.81-22.58,8.42-31.81c5.62-9.23,13.34-16.48,23.17-21.73,9.83-5.24,21.02-7.87,33.59-7.87s24.02,2.63,33.92,7.87c9.9,5.25,17.66,12.49,23.28,21.73,5.62,9.24,8.42,19.84,8.42,31.81s-2.81,22.54-8.42,31.7c-5.62,9.17-13.38,16.41-23.28,21.73-9.9,5.32-21.21,7.98-33.92,7.98ZM468.45,596.39c5.91,0,11.12-1.29,15.63-3.88,4.51-2.58,8.13-6.39,10.86-11.42,2.73-5.02,4.1-10.94,4.1-17.74s-1.37-12.86-4.1-17.74c-2.74-4.88-6.36-8.61-10.86-11.2-4.51-2.58-9.64-3.88-15.41-3.88s-10.94,1.3-15.52,3.88c-4.58,2.59-8.24,6.32-10.97,11.2-2.74,4.88-4.1,10.79-4.1,17.74s1.36,12.71,4.1,17.74c2.73,5.03,6.39,8.83,10.97,11.42,4.58,2.59,9.68,3.88,15.3,3.88Z"/>
    <path class="cls-36" d="M543.83,623v-119.28h33.03v33.03l-6.21-9.98c4.29-7.98,10.42-14.11,18.4-18.4,7.98-4.29,17.07-6.43,27.27-6.43,9.46,0,17.92,1.88,25.38,5.65,7.46,3.77,13.34,9.53,17.63,17.29,4.29,7.76,6.43,17.7,6.43,29.82v68.28h-34.59v-62.96c0-9.61-2.11-16.7-6.32-21.28-4.21-4.58-10.16-6.87-17.85-6.87-5.47,0-10.39,1.19-14.74,3.55-4.36,2.37-7.76,5.84-10.2,10.42-2.44,4.58-3.66,10.64-3.66,18.18v58.97h-34.59Z"/>
    <path class="cls-36" d="M734.71,624.77c-11.23,0-21.36-2.55-30.37-7.65-9.02-5.1-16.11-12.23-21.28-21.39-5.18-9.16-7.76-19.95-7.76-32.37s2.58-23.2,7.76-32.37c5.17-9.16,12.27-16.29,21.28-21.39,9.01-5.1,19.14-7.65,30.37-7.65,10.05,0,18.84,2.22,26.38,6.65,7.54,4.43,13.38,11.16,17.51,20.17,4.14,9.02,6.21,20.55,6.21,34.59s-2,25.42-5.99,34.59c-3.99,9.17-9.72,15.93-17.18,20.29-7.46,4.36-16.44,6.54-26.94,6.54ZM740.48,596.39c5.76,0,10.94-1.29,15.52-3.88,4.58-2.58,8.24-6.39,10.97-11.42,2.73-5.02,4.1-10.94,4.1-17.74s-1.37-12.86-4.1-17.74c-2.74-4.88-6.39-8.61-10.97-11.2-4.58-2.58-9.75-3.88-15.52-3.88s-10.72,1.3-15.3,3.88c-4.58,2.59-8.24,6.32-10.97,11.2-2.74,4.88-4.1,10.79-4.1,17.74s1.36,12.71,4.1,17.74c2.73,5.03,6.39,8.83,10.97,11.42,4.58,2.59,9.68,3.88,15.3,3.88ZM771.96,623v-24.39l.67-35.47-2.22-35.25v-69.39h34.59v164.5h-33.03Z"/>
    <path class="cls-36" d="M882.81,624.77c-13.6,0-25.5-2.66-35.69-7.98s-18.11-12.6-23.72-21.84c-5.62-9.24-8.42-19.77-8.42-31.59s2.7-22.39,8.09-31.7c5.39-9.31,12.93-16.59,22.61-21.84,9.68-5.24,20.58-7.87,32.7-7.87s22.21,2.52,31.59,7.54c9.38,5.03,16.81,12.12,22.28,21.28,5.47,9.17,8.2,20.17,8.2,33.03,0,1.33-.08,2.85-.22,4.54-.15,1.7-.3,3.29-.44,4.77h-96.88v-20.17h78.7l-13.52,5.99c.15-6.21-1.04-11.6-3.55-16.18-2.52-4.58-5.99-8.17-10.42-10.75-4.43-2.58-9.61-3.88-15.52-3.88s-11.12,1.3-15.63,3.88c-4.51,2.59-8.02,6.21-10.53,10.86-2.51,4.66-3.77,10.16-3.77,16.52v5.32c0,6.65,1.48,12.42,4.43,17.29,2.96,4.88,7.02,8.61,12.19,11.2,5.17,2.59,11.38,3.88,18.62,3.88,6.21,0,11.71-.96,16.52-2.88,4.8-1.92,9.2-4.8,13.19-8.65l18.4,19.95c-5.47,6.21-12.34,10.97-20.62,14.3-8.28,3.33-17.81,4.99-28.6,4.99Z"/>
  </g>
  <g class="cls-38">
    <rect class="cls-19" x="13.39" y="509.94" width="135.79" height="226.19"/>
  </g>
  <g class="cls-1">
    <path class="cls-5" d="M13.39,543.19c33.49-4.46,67.88,10.51,67.88,44.77v66.73c0,35.56,34.3,51.29,67.91,48.1v30.77l-10.77.42c-54.85,2.15-90.96-25.35-90.96-82.18,0-17.43,1.08-35.07.76-52.42-.41-21.19-2.52-24.05-23.74-25.06l-11.08-.54v-30.61Z"/>
  </g>
  <g class="cls-26">
    <path class="cls-3" d="M13.39,512.58v30.61c33.49-4.46,67.88,10.51,67.88,44.77v66.73c0,35.56,34.3,51.29,67.91,48.1v-30.77c-7.82-.23-26.04.25-30.86-5.17-3.61-4.06-3.85-15.16-3.97-20.22-.31-17.33.78-34.99.78-52.42,0-69.46-47.42-84.28-101.74-81.65"/>
  </g>
  <g class="cls-27">
    <rect class="cls-16" x="13.39" y="350.23" width="135.79" height="226.2"/>
  </g>
  <g class="cls-20">
    <path class="cls-9" d="M13.39,543.18c33.49,4.46,67.88-10.51,67.88-44.77v-66.73c0-35.55,34.3-51.28,67.91-48.09v-30.77l-10.77-.42c-54.85-2.15-90.96,25.35-90.96,82.18,0,17.43,1.08,35.08.76,52.42-.41,21.17-2.52,24.04-23.74,25.05l-11.08.54v30.6Z"/>
  </g>
  <g class="cls-21">
    <path class="cls-2" d="M13.39,573.8v-30.62c33.49,4.46,67.88-10.51,67.88-44.77v-66.73c0-35.55,34.3-51.28,67.91-48.09v30.76c-7.82.23-26.04-.25-30.86,5.17-3.61,4.05-3.85,15.16-3.97,20.2-.31,17.34.78,35,.78,52.42,0,69.47-47.42,84.29-101.74,81.65"/>
  </g>
  <g class="cls-29">
    <rect class="cls-12" x="930.81" y="350.23" width="135.79" height="226.2"/>
  </g>
  <g class="cls-22">
    <path class="cls-8" d="M1066.61,543.18c-33.49,4.46-67.87-10.51-67.87-44.77v-66.73c0-35.55-34.31-51.29-67.92-48.1v-30.76l10.78-.42c54.85-2.15,90.97,25.35,90.97,82.18,0,17.41-1.1,35.07-.77,52.41.4,21.18,2.5,24.04,23.73,25.06l11.09.54v30.6Z"/>
  </g>
  <g class="cls-23">
    <path class="cls-7" d="M1066.61,573.8v-30.62c-33.49,4.46-67.87-10.51-67.87-44.77v-66.73c0-35.55-34.31-51.29-67.92-48.1v30.77c7.81.23,26.05-.25,30.87,5.17,3.61,4.05,3.86,15.16,3.95,20.2.33,17.34-.77,35-.77,52.42,0,69.47,47.43,84.29,101.74,81.65"/>
  </g>
  <g class="cls-28">
    <rect class="cls-32" x="930.81" y="509.93" width="135.79" height="226.21"/>
  </g>
  <g class="cls-25">
    <path class="cls-6" d="M1066.61,512.58v30.6c-33.49-4.45-67.87,10.52-67.87,44.78v66.73c0,35.56-34.31,51.28-67.92,48.1v-30.77c7.81-.23,26.05.26,30.87-5.16,3.61-4.06,3.86-15.17,3.95-20.22.33-17.34-.77-34.99-.77-52.42,0-69.46,47.43-84.3,101.74-81.65"/>
  </g>
  <g class="cls-24">
    <path class="cls-4" d="M1066.61,543.18c-33.49-4.45-67.87,10.52-67.87,44.78v66.73c0,35.56-34.31,51.28-67.92,48.1v30.77l10.78.42c54.85,2.15,90.97-25.35,90.97-82.17,0-17.43-1.1-35.08-.77-52.42.4-21.18,2.5-24.05,23.73-25.06l11.09-.53v-30.62Z"/>
  </g>
  <g>
    <rect class="cls-37" x="517.42" y="688.55" width="45.56" height="45.56"/>
    <rect class="cls-10" x="413.97" y="688.55" width="45.56" height="45.56"/>
    <rect class="cls-30" x="310.51" y="688.55" width="45.58" height="45.56"/>
    <rect class="cls-35" x="207.07" y="688.55" width="45.56" height="45.56"/>
  </g>
  <g>
    <path class="cls-36" d="M618.15,720.27c0-7.98,5.37-13.5,13.06-13.5s12.77,5.37,12.92,13.5c0,7.69-5.23,13.35-13.21,13.35-7.4,0-12.77-5.66-12.77-13.35Z"/>
    <path class="cls-36" d="M649.61,664.56c5.69-.91,13.11-1.52,20.83-1.52,13.11,0,21.64,2.44,28.15,7.32,7.11,5.28,11.58,13.72,11.58,25.81,0,13.11-4.78,22.15-11.28,27.74-7.21,6-18.29,8.84-31.7,8.84-8.03,0-13.82-.51-17.58-1.02v-67.16ZM665.05,720.34c1.32.31,3.56.31,5.39.31,14.12.1,23.37-7.62,23.37-23.98,0-14.23-8.33-21.74-21.74-21.74-3.35,0-5.69.31-7.01.61v44.81Z"/>
    <path class="cls-36" d="M749.49,703.07h-25.2v16.26h28.15v12.7h-43.59v-68.48h42.17v12.7h-26.72v14.23h25.2v12.6Z"/>
    <path class="cls-36" d="M772.86,732.02l-21.95-68.48h16.97l8.33,28.96c2.34,8.23,4.47,15.95,6.1,24.49h.3c1.73-8.23,3.86-16.36,6.2-24.18l8.74-29.26h16.46l-23.06,68.48h-18.09Z"/>
  </g>
</svg>